<svg width="36" height="45" viewBox="0 0 36 45" fill="none" xmlns="http://www.w3.org/2000/svg">
<path d="M25.3677 14.6545C25.3677 14.6545 26.9218 13.897 26.7923 15.7366C26.7492 16.4942 26.3606 19.1454 26.0584 22.0131L25.0224 30.5079C25.0224 30.5079 24.936 31.7524 24.159 31.9688C23.3819 32.1852 22.2163 31.2113 22.0004 30.9949C21.8278 30.8326 18.7627 28.3977 17.6834 27.2074C17.3812 26.8827 17.0359 26.2334 17.7266 25.476L22.2595 20.0653C22.7775 19.416 23.2956 17.9009 21.137 19.7406L15.0932 24.8808C15.0932 24.8808 14.4025 25.4219 13.1074 24.9349L10.3014 23.8527C10.3014 23.8527 9.26528 23.0412 11.0353 22.2295C15.3523 19.6865 20.6622 17.0893 25.3677 14.6545Z" fill="#F6F6F6"/>
</svg>
