<svg width="24" height="24" viewBox="0 0 24 24" fill="none" xmlns="http://www.w3.org/2000/svg">
<path fill-rule="evenodd" clip-rule="evenodd" d="M19.1683 4.6854C18.6902 4.0298 18.1159 3.52093 17.4383 3.18877C16.6735 2.81395 15.8237 2.68708 14.9147 2.7784C13.4473 2.92581 12.4224 3.74408 11.8369 4.94524C11.3368 5.97121 11.1624 7.2564 11.2222 8.63205C9.8576 9.16056 8.65357 8.87434 7.58645 8.19309C6.36563 7.41372 5.35044 6.12353 4.63635 4.95957C4.47912 4.70328 4.18401 4.56566 3.88661 4.60995C3.5892 4.65424 3.34699 4.87187 3.27126 5.16285C2.77153 7.0828 2.23618 9.56307 3.29714 12.3192C3.90478 13.8976 5.18217 15.2101 7.01747 16.2928C5.19337 17.1109 3.74771 17.3554 2.64039 17.1443C2.27835 17.0753 1.91983 17.2796 1.7946 17.6262C1.66938 17.9729 1.81456 18.3591 2.1371 18.5374C2.15989 18.55 2.1862 18.5647 2.2159 18.5812C2.81486 18.9146 4.79685 20.0177 7.25581 20.6952C9.81722 21.4008 13.0598 21.6897 15.8073 19.973C20.9024 16.7896 20.8682 11.3947 20.8519 8.82575C20.8515 8.75728 20.8511 8.69081 20.8508 8.62646C20.9216 8.50341 21.0094 8.3759 21.1228 8.21419C21.1282 8.20653 21.1336 8.1988 21.1391 8.19101C21.2855 7.98228 21.466 7.72491 21.632 7.4106C21.9906 6.7314 22.25 5.85076 22.25 4.47187C22.25 4.17392 22.0736 3.90423 21.8007 3.78478C21.5277 3.66533 21.2099 3.71878 20.9911 3.92096C20.2882 4.5702 19.6965 4.76123 19.1683 4.6854ZM16.7781 4.53568C16.3002 4.30145 15.7377 4.20327 15.0647 4.27089C14.159 4.36187 13.5633 4.8269 13.1853 5.60245C12.7862 6.4213 12.6294 7.60343 12.7512 9.03993C12.7771 9.34468 12.6153 9.63459 12.3424 9.77261C10.2322 10.8397 8.31708 10.4391 6.7793 9.45742C5.82973 8.85121 5.01653 8.02233 4.35361 7.17926C4.1022 8.60746 4.06567 10.1402 4.697 11.7803C5.24626 13.2071 6.6061 14.5138 8.98244 15.6339C9.23821 15.7544 9.40444 16.0086 9.41239 16.2912C9.42033 16.5738 9.26865 16.8369 9.02006 16.9717C7.72559 17.6732 6.50943 18.1787 5.38122 18.4595C6.05552 18.7402 6.82646 19.021 7.65424 19.249C10.0656 19.9134 12.7958 20.0859 15.0125 18.7009C19.3781 15.9733 19.3609 11.386 19.3512 8.78519C19.3507 8.66689 19.3503 8.55269 19.3503 8.44297C19.3503 8.33117 19.3753 8.22078 19.4234 8.11989C19.5652 7.82284 19.7426 7.56985 19.89 7.35968L19.8954 7.35196C20.0505 7.13075 20.1842 6.94003 20.3055 6.71021C20.4101 6.51228 20.5118 6.27251 20.5915 5.9588C19.9254 6.23035 19.2246 6.28601 18.5028 6.07039C18.3334 6.01978 18.1873 5.91094 18.0903 5.7631C17.6984 5.16553 17.2575 4.77066 16.7781 4.53568Z" fill="#1C1B1E"/>
</svg>
