<svg width="45" height="45" viewBox="0 0 45 45" fill="none" xmlns="http://www.w3.org/2000/svg">
<path fill-rule="evenodd" clip-rule="evenodd" d="M30.1683 15.6854C29.6902 15.0298 29.1159 14.5209 28.4383 14.1888C27.6735 13.814 26.8237 13.6871 25.9147 13.7784C24.4473 13.9258 23.4224 14.7441 22.8369 15.9452C22.3368 16.9712 22.1624 18.2564 22.2222 19.632C20.8576 20.1606 19.6536 19.8743 18.5864 19.1931C17.3656 18.4137 16.3504 17.1235 15.6364 15.9596C15.4791 15.7033 15.184 15.5657 14.8866 15.61C14.5892 15.6542 14.347 15.8719 14.2713 16.1629C13.7715 18.0828 13.2362 20.5631 14.2971 23.3192C14.9048 24.8976 16.1822 26.2101 18.0175 27.2928C16.1934 28.1109 14.7477 28.3554 13.6404 28.1443C13.2784 28.0753 12.9198 28.2796 12.7946 28.6262C12.6694 28.9729 12.8146 29.3591 13.1371 29.5374C13.1599 29.55 13.1862 29.5647 13.2159 29.5812C13.8149 29.9146 15.7969 31.0177 18.2558 31.6952C20.8172 32.4008 24.0598 32.6897 26.8073 30.973C31.9024 27.7896 31.8682 22.3947 31.8519 19.8257C31.8515 19.7573 31.8511 19.6908 31.8508 19.6265C31.9216 19.5034 32.0094 19.3759 32.1228 19.2142C32.1282 19.2065 32.1336 19.1988 32.1391 19.191C32.2855 18.9823 32.466 18.7249 32.632 18.4106C32.9906 17.7314 33.25 16.8508 33.25 15.4719C33.25 15.1739 33.0736 14.9042 32.8007 14.7848C32.5277 14.6653 32.2099 14.7188 31.9911 14.921C31.2882 15.5702 30.6965 15.7612 30.1683 15.6854ZM27.7781 15.5357C27.3002 15.3015 26.7377 15.2033 26.0647 15.2709C25.159 15.3619 24.5633 15.8269 24.1853 16.6025C23.7862 17.4213 23.6294 18.6034 23.7512 20.0399C23.7771 20.3447 23.6153 20.6346 23.3424 20.7726C21.2322 21.8397 19.3171 21.4391 17.7793 20.4574C16.8297 19.8512 16.0165 19.0223 15.3536 18.1793C15.1022 19.6075 15.0657 21.1402 15.697 22.7803C16.2463 24.2071 17.6061 25.5138 19.9824 26.6339C20.2382 26.7544 20.4044 27.0086 20.4124 27.2912C20.4203 27.5738 20.2686 27.8369 20.0201 27.9717C18.7256 28.6732 17.5094 29.1787 16.3812 29.4595C17.0555 29.7402 17.8265 30.021 18.6542 30.249C21.0656 30.9134 23.7958 31.0859 26.0125 29.7009C30.3781 26.9733 30.3609 22.386 30.3512 19.7852C30.3507 19.6669 30.3503 19.5527 30.3503 19.443C30.3503 19.3312 30.3753 19.2208 30.4234 19.1199C30.5652 18.8228 30.7426 18.5698 30.89 18.3597L30.8954 18.352C31.0505 18.1307 31.1842 17.94 31.3055 17.7102C31.4101 17.5123 31.5118 17.2725 31.5915 16.9588C30.9254 17.2303 30.2246 17.286 29.5028 17.0704C29.3334 17.0198 29.1873 16.9109 29.0903 16.7631C28.6984 16.1655 28.2575 15.7707 27.7781 15.5357Z" fill="#F6F6F6"/>
</svg>
