<svg width="7" height="8" viewBox="0 0 7 8" fill="none" xmlns="http://www.w3.org/2000/svg">
<path d="M2.1649 6.56053L1.75137 5.93484L1.75125 5.93492L2.1649 6.56053ZM5.4637 4.38028L5.87723 5.00597L5.87724 5.00597L5.4637 4.38028ZM5.5849 3.78643L6.21059 3.37289L6.21056 3.37285L5.5849 3.78643ZM5.4665 3.66708L5.048 4.28946L5.04818 4.28958L5.4665 3.66708ZM2.1677 1.44893L2.5862 0.826546L2.58617 0.826529L2.1677 1.44893ZM1.5729 1.56548L0.950524 1.14697L0.950356 1.14722L1.5729 1.56548ZM0.75 1.80458V6.20303H2.25V1.80458H0.75ZM0.75 6.20303C0.75 6.85389 1.27768 7.38158 1.92855 7.38158V5.88158C2.10612 5.88158 2.25 6.02547 2.25 6.20303H0.75ZM1.92855 7.38158C2.15958 7.38158 2.38565 7.31368 2.57855 7.18614L1.75125 5.93492C1.80395 5.90007 1.86562 5.88158 1.92855 5.88158V7.38158ZM2.57843 7.18622L5.87723 5.00597L5.05017 3.75459L1.75137 5.93484L2.57843 7.18622ZM5.87724 5.00597C6.42033 4.64702 6.56942 3.91582 6.21059 3.37289L4.95921 4.19996C4.86138 4.05194 4.90197 3.85253 5.05016 3.75459L5.87724 5.00597ZM6.21056 3.37285C6.12489 3.24324 6.01425 3.13155 5.88482 3.04457L5.04818 4.28958C5.01265 4.26571 4.98251 4.23522 4.95924 4.2L6.21056 3.37285ZM5.885 3.0447L2.5862 0.826546L1.7492 2.07131L5.048 4.28946L5.885 3.0447ZM2.58617 0.826529C2.04602 0.463355 1.31373 0.606833 0.950524 1.14697L2.19528 1.98399C2.09627 2.13123 1.89658 2.1704 1.74923 2.07133L2.58617 0.826529ZM0.950356 1.14722C0.819887 1.34141 0.75 1.57024 0.75 1.80458H2.25C2.25 1.86862 2.23091 1.93094 2.19544 1.98374L0.950356 1.14722Z" fill="#1C1B1E"/>
</svg>
