<svg width="45" height="45" viewBox="0 0 45 45" fill="none" xmlns="http://www.w3.org/2000/svg">
<path d="M16.5317 16.2072L16.4944 15.4581L16.4944 15.4581L16.5317 16.2072ZM29.4684 16.2073L29.5057 15.4582L29.5057 15.4582L29.4684 16.2073ZM32.3087 18.9536L33.0561 18.8911L33.0561 18.8911L32.3087 18.9536ZM32.304 27.0261L33.0513 27.0892V27.0892L32.304 27.0261ZM29.5104 29.7675L29.4614 29.019L29.4614 29.019L29.5104 29.7675ZM16.4898 29.7675L16.4408 30.516L16.4409 30.516L16.4898 29.7675ZM13.6963 27.0275L14.4436 26.9641L13.6963 27.0275ZM13.6916 18.9522L12.9442 18.8894L12.9442 18.8894L13.6916 18.9522ZM16.569 16.9563C19.3363 16.8183 21.4776 16.75 22.9989 16.75V15.25C21.4405 15.25 19.2703 15.3198 16.4944 15.4581L16.569 16.9563ZM22.9989 16.75C24.5203 16.75 26.6624 16.8184 29.4311 16.9563L29.5057 15.4582C26.7284 15.3198 24.5575 15.25 22.9989 15.25V16.75ZM29.4311 16.9563C30.5569 17.0124 31.4674 17.8929 31.5613 19.0161L33.0561 18.8911C32.8996 17.019 31.382 15.5517 29.5057 15.4582L29.4311 16.9563ZM31.5613 19.0161C31.6869 20.5184 31.7489 21.8329 31.7489 22.9619H33.2489C33.2489 21.7805 33.1841 20.4228 33.0561 18.8911L31.5613 19.0161ZM31.7489 22.9619C31.7489 24.1048 31.6854 25.4377 31.5567 26.963L33.0513 27.0892C33.1825 25.5343 33.2489 24.1578 33.2489 22.9619H31.7489ZM31.5567 26.963C31.4631 28.0723 30.5723 28.9464 29.4614 29.019L29.5593 30.5159C31.4108 30.3948 32.8953 28.938 33.0513 27.0892L31.5567 26.963ZM29.4614 29.019C27.1038 29.1732 24.9499 29.25 22.9989 29.25V30.75C24.9884 30.75 27.1755 30.6718 29.5593 30.5159L29.4614 29.019ZM22.9989 29.25C21.0481 29.25 18.895 29.1732 16.5387 29.0191L16.4409 30.516C18.8234 30.6718 21.0097 30.75 22.9989 30.75V29.25ZM16.5388 29.0191C15.4283 28.9465 14.5377 28.0729 14.4436 26.9641L12.949 27.0909C13.1058 28.939 14.59 30.3949 16.4408 30.516L16.5388 29.0191ZM14.4436 26.9641C14.3132 25.4269 14.2489 24.0938 14.2489 22.9619H12.7489C12.7489 24.1476 12.8162 25.5249 12.949 27.0909L14.4436 26.9641ZM14.2489 22.9619C14.2489 21.8437 14.3117 20.5289 14.439 19.015L12.9442 18.8894C12.8146 20.4321 12.7489 21.7904 12.7489 22.9619H14.2489ZM14.439 19.015C14.5333 17.8922 15.4437 17.0124 16.569 16.9563L16.4944 15.4581C14.6188 15.5516 13.1015 17.0181 12.9442 18.8894L14.439 19.015Z" fill="#F6F6F6"/>
<path d="M22.1649 25.5605L21.7514 24.9348L21.7512 24.9349L22.1649 25.5605ZM25.4637 23.3803L25.8772 24.006L25.8772 24.006L25.4637 23.3803ZM25.5849 22.7864L26.2106 22.3729L26.2106 22.3729L25.5849 22.7864ZM25.4665 22.6671L25.048 23.2895L25.0482 23.2896L25.4665 22.6671ZM22.1677 20.4489L22.5862 19.8265L22.5862 19.8265L22.1677 20.4489ZM21.5729 20.5655L20.9505 20.147L20.9504 20.1472L21.5729 20.5655ZM20.75 20.8046V25.203H22.25V20.8046H20.75ZM20.75 25.203C20.75 25.8539 21.2777 26.3816 21.9285 26.3816V24.8816C22.1061 24.8816 22.25 25.0255 22.25 25.203H20.75ZM21.9285 26.3816C22.1596 26.3816 22.3857 26.3137 22.5786 26.1861L21.7512 24.9349C21.8039 24.9001 21.8656 24.8816 21.9285 24.8816V26.3816ZM22.5784 26.1862L25.8772 24.006L25.0502 22.7546L21.7514 24.9348L22.5784 26.1862ZM25.8772 24.006C26.4203 23.647 26.5694 22.9158 26.2106 22.3729L24.9592 23.2C24.8614 23.0519 24.902 22.8525 25.0502 22.7546L25.8772 24.006ZM26.2106 22.3729C26.1249 22.2432 26.0142 22.1316 25.8848 22.0446L25.0482 23.2896C25.0127 23.2657 24.9825 23.2352 24.9592 23.2L26.2106 22.3729ZM25.885 22.0447L22.5862 19.8265L21.7492 21.0713L25.048 23.2895L25.885 22.0447ZM22.5862 19.8265C22.046 19.4634 21.3137 19.6068 20.9505 20.147L22.1953 20.984C22.0963 21.1312 21.8966 21.1704 21.7492 21.0713L22.5862 19.8265ZM20.9504 20.1472C20.8199 20.3414 20.75 20.5702 20.75 20.8046H22.25C22.25 20.8686 22.2309 20.9309 22.1954 20.9837L20.9504 20.1472Z" fill="#F6F6F6"/>
</svg>
