<svg width="115" height="25" viewBox="0 0 115 25" fill="none" xmlns="http://www.w3.org/2000/svg">
<path d="M0.563409 2.164H10.4514C12.3074 2.164 13.7581 2.68667 14.8034 3.732C15.8701 4.77733 16.4034 6.17467 16.4034 7.924C16.4034 8.756 16.2861 9.47067 16.0514 10.068C15.8167 10.644 15.5181 11.124 15.1554 11.508C14.7927 11.8707 14.3767 12.148 13.9074 12.34C13.4381 12.5107 12.9794 12.6173 12.5314 12.66V12.852C12.9794 12.8733 13.4701 12.98 14.0034 13.172C14.5581 13.364 15.0701 13.6733 15.5394 14.1C16.0087 14.5053 16.4034 15.0387 16.7234 15.7C17.0434 16.34 17.2034 17.1293 17.2034 18.068C17.2034 18.964 17.0541 19.8067 16.7554 20.596C16.4781 21.3853 16.0834 22.068 15.5714 22.644C15.0594 23.22 14.4514 23.6787 13.7474 24.02C13.0434 24.34 12.2754 24.5 11.4434 24.5H0.563409V2.164ZM4.17941 21.396H10.3874C11.3261 21.396 12.0621 21.1507 12.5954 20.66C13.1287 20.1693 13.3954 19.4653 13.3954 18.548V17.46C13.3954 16.5427 13.1287 15.8387 12.5954 15.348C12.0621 14.8573 11.3261 14.612 10.3874 14.612H4.17941V21.396ZM4.17941 11.604H9.77941C10.6754 11.604 11.3687 11.38 11.8594 10.932C12.3501 10.4627 12.5954 9.80133 12.5954 8.948V7.924C12.5954 7.07067 12.3501 6.42 11.8594 5.972C11.3687 5.50267 10.6754 5.268 9.77941 5.268H4.17941V11.604ZM23.1612 4.884C22.4358 4.884 21.9025 4.71333 21.5612 4.372C21.2412 4.03067 21.0812 3.59333 21.0812 3.06V2.516C21.0812 1.98267 21.2412 1.54533 21.5612 1.204C21.9025 0.862666 22.4358 0.691999 23.1612 0.691999C23.8865 0.691999 24.4092 0.862666 24.7292 1.204C25.0492 1.54533 25.2092 1.98267 25.2092 2.516V3.06C25.2092 3.59333 25.0492 4.03067 24.7292 4.372C24.4092 4.71333 23.8865 4.884 23.1612 4.884ZM21.4012 7.86H24.8892V24.5H21.4012V7.86ZM29.8699 24.5V7.86H33.3579V10.612H33.5179C33.8806 9.716 34.4246 8.96933 35.1499 8.372C35.8966 7.77467 36.9099 7.476 38.1899 7.476C39.8966 7.476 41.2192 8.04133 42.1579 9.172C43.1179 10.2813 43.5979 11.8707 43.5979 13.94V24.5H40.1099V14.388C40.1099 11.7853 39.0646 10.484 36.9739 10.484C36.5259 10.484 36.0779 10.548 35.6299 10.676C35.2032 10.7827 34.8192 10.9533 34.4779 11.188C34.1366 11.4227 33.8592 11.7213 33.6459 12.084C33.4539 12.4467 33.3579 12.8733 33.3579 13.364V24.5H29.8699ZM60.6244 24.5C59.7071 24.5 59.0031 24.244 58.5124 23.732C58.0217 23.1987 57.7231 22.5267 57.6164 21.716H57.4564C57.1364 22.7613 56.5497 23.5507 55.6964 24.084C54.8431 24.6173 53.8084 24.884 52.5924 24.884C50.8644 24.884 49.5311 24.436 48.5924 23.54C47.6751 22.644 47.2164 21.4387 47.2164 19.924C47.2164 18.26 47.8137 17.012 49.0084 16.18C50.2244 15.348 51.9951 14.932 54.3204 14.932H57.3284V13.524C57.3284 12.5 57.0511 11.7107 56.4964 11.156C55.9417 10.6013 55.0777 10.324 53.9044 10.324C52.9231 10.324 52.1231 10.5373 51.5044 10.964C50.8857 11.3907 50.3631 11.9347 49.9364 12.596L47.8564 10.708C48.4111 9.76933 49.1897 9.00133 50.1924 8.404C51.1951 7.78533 52.5071 7.476 54.1284 7.476C56.2831 7.476 57.9364 7.97733 59.0884 8.98C60.2404 9.98267 60.8164 11.4227 60.8164 13.3V21.652H62.5764V24.5H60.6244ZM53.5844 22.228C54.6724 22.228 55.5684 21.9933 56.2724 21.524C56.9764 21.0333 57.3284 20.3827 57.3284 19.572V17.172H54.3844C51.9737 17.172 50.7684 17.9187 50.7684 19.412V19.988C50.7684 20.7347 51.0137 21.3 51.5044 21.684C52.0164 22.0467 52.7097 22.228 53.5844 22.228ZM65.9949 24.5V7.86H69.4829V10.612H69.6429C70.0056 9.716 70.5496 8.96933 71.2749 8.372C72.0216 7.77467 73.0349 7.476 74.3149 7.476C76.0216 7.476 77.3442 8.04133 78.2829 9.172C79.2429 10.2813 79.7229 11.8707 79.7229 13.94V24.5H76.2349V14.388C76.2349 11.7853 75.1896 10.484 73.0989 10.484C72.6509 10.484 72.2029 10.548 71.7549 10.676C71.3282 10.7827 70.9442 10.9533 70.6029 11.188C70.2616 11.4227 69.9842 11.7213 69.7709 12.084C69.5789 12.4467 69.4829 12.8733 69.4829 13.364V24.5H65.9949ZM90.9894 24.884C89.7947 24.884 88.7281 24.6813 87.7894 24.276C86.8507 23.8707 86.0614 23.2947 85.4214 22.548C84.7814 21.78 84.2907 20.8627 83.9494 19.796C83.6081 18.708 83.4374 17.5027 83.4374 16.18C83.4374 14.8573 83.6081 13.6627 83.9494 12.596C84.2907 11.508 84.7814 10.5907 85.4214 9.844C86.0614 9.076 86.8507 8.48933 87.7894 8.084C88.7281 7.67867 89.7947 7.476 90.9894 7.476C92.6534 7.476 94.0187 7.84933 95.0854 8.596C96.1521 9.34267 96.9307 10.3347 97.4214 11.572L94.5414 12.916C94.3067 12.148 93.8907 11.54 93.2934 11.092C92.7174 10.6227 91.9494 10.388 90.9894 10.388C89.7094 10.388 88.7387 10.7933 88.0774 11.604C87.4374 12.3933 87.1174 13.428 87.1174 14.708V17.684C87.1174 18.964 87.4374 20.0093 88.0774 20.82C88.7387 21.6093 89.7094 22.004 90.9894 22.004C92.0134 22.004 92.8241 21.7587 93.4214 21.268C94.0401 20.756 94.5307 20.084 94.8934 19.252L97.5494 20.66C96.9947 22.0253 96.1627 23.0707 95.0534 23.796C93.9441 24.5213 92.5894 24.884 90.9894 24.884ZM107.21 24.884C106.016 24.884 104.949 24.6813 104.01 24.276C103.072 23.8707 102.272 23.2947 101.61 22.548C100.949 21.78 100.437 20.8627 100.074 19.796C99.7331 18.708 99.5624 17.5027 99.5624 16.18C99.5624 14.8573 99.7331 13.6627 100.074 12.596C100.437 11.508 100.949 10.5907 101.61 9.844C102.272 9.076 103.072 8.48933 104.01 8.084C104.949 7.67867 106.016 7.476 107.21 7.476C108.426 7.476 109.493 7.68933 110.41 8.116C111.349 8.54267 112.128 9.14 112.746 9.908C113.365 10.6547 113.824 11.5293 114.122 12.532C114.442 13.5347 114.602 14.612 114.602 15.764V17.076H103.178V17.62C103.178 18.9 103.552 19.956 104.298 20.788C105.066 21.5987 106.154 22.004 107.562 22.004C108.586 22.004 109.45 21.78 110.154 21.332C110.858 20.884 111.456 20.276 111.946 19.508L113.994 21.524C113.376 22.548 112.48 23.3693 111.306 23.988C110.133 24.5853 108.768 24.884 107.21 24.884ZM107.21 10.196C106.613 10.196 106.058 10.3027 105.546 10.516C105.056 10.7293 104.629 11.028 104.266 11.412C103.925 11.796 103.658 12.2547 103.466 12.788C103.274 13.3213 103.178 13.908 103.178 14.548V14.772H110.922V14.452C110.922 13.172 110.592 12.148 109.93 11.38C109.269 10.5907 108.362 10.196 107.21 10.196Z" fill="#F6F6F6"/>
</svg>
