<svg width="132" height="22" viewBox="0 0 132 22" fill="none" xmlns="http://www.w3.org/2000/svg">
<path d="M8.88829 21.836C6.33095 21.836 4.32429 20.9773 2.86829 19.26C1.41229 17.524 0.684287 15.0133 0.684287 11.728C0.684287 10.0853 0.870954 8.63867 1.24429 7.388C1.61762 6.13733 2.15895 5.08267 2.86829 4.224C3.57762 3.36533 4.43629 2.72133 5.44429 2.292C6.47095 1.844 7.61895 1.62 8.88829 1.62C10.587 1.62 12.0056 1.99333 13.1443 2.74C14.3016 3.48667 15.207 4.588 15.8603 6.044L13.2003 7.5C12.8643 6.56667 12.3416 5.82933 11.6323 5.288C10.9416 4.728 10.027 4.448 8.88829 4.448C7.37629 4.448 6.19095 4.96133 5.33229 5.988C4.47362 7.01467 4.04429 8.43333 4.04429 10.244V13.212C4.04429 15.0227 4.47362 16.4413 5.33229 17.468C6.19095 18.4947 7.37629 19.008 8.88829 19.008C10.0643 19.008 11.0163 18.7093 11.7443 18.112C12.491 17.496 13.0416 16.712 13.3963 15.76L15.9443 17.3C15.291 18.7187 14.3763 19.8293 13.2003 20.632C12.0243 21.4347 10.587 21.836 8.88829 21.836ZM24.7864 21.836C23.7784 21.836 22.8544 21.6587 22.0144 21.304C21.193 20.9493 20.493 20.4453 19.9144 19.792C19.3357 19.12 18.8877 18.3173 18.5704 17.384C18.253 16.432 18.0944 15.3773 18.0944 14.22C18.0944 13.0627 18.253 12.0173 18.5704 11.084C18.8877 10.132 19.3357 9.32933 19.9144 8.676C20.493 8.004 21.193 7.49067 22.0144 7.136C22.8544 6.78133 23.7784 6.604 24.7864 6.604C25.7944 6.604 26.709 6.78133 27.5304 7.136C28.3704 7.49067 29.0797 8.004 29.6584 8.676C30.237 9.32933 30.685 10.132 31.0024 11.084C31.3197 12.0173 31.4784 13.0627 31.4784 14.22C31.4784 15.3773 31.3197 16.432 31.0024 17.384C30.685 18.3173 30.237 19.12 29.6584 19.792C29.0797 20.4453 28.3704 20.9493 27.5304 21.304C26.709 21.6587 25.7944 21.836 24.7864 21.836ZM24.7864 19.316C25.8317 19.316 26.6717 18.9987 27.3064 18.364C27.941 17.7107 28.2584 16.74 28.2584 15.452V12.988C28.2584 11.7 27.941 10.7387 27.3064 10.104C26.6717 9.45067 25.8317 9.124 24.7864 9.124C23.741 9.124 22.901 9.45067 22.2664 10.104C21.6317 10.7387 21.3144 11.7 21.3144 12.988V15.452C21.3144 16.74 21.6317 17.7107 22.2664 18.364C22.901 18.9987 23.741 19.316 24.7864 19.316ZM36.4191 4.336C35.7844 4.336 35.3177 4.18667 35.0191 3.888C34.7391 3.58933 34.5991 3.20667 34.5991 2.74V2.264C34.5991 1.79733 34.7391 1.41467 35.0191 1.116C35.3177 0.817333 35.7844 0.668 36.4191 0.668C37.0537 0.668 37.5111 0.817333 37.7911 1.116C38.0711 1.41467 38.2111 1.79733 38.2111 2.264V2.74C38.2111 3.20667 38.0711 3.58933 37.7911 3.888C37.5111 4.18667 37.0537 4.336 36.4191 4.336ZM34.8791 6.94H37.9311V21.5H34.8791V6.94ZM42.2892 21.5V6.94H45.3412V9.348H45.4812C45.7986 8.564 46.2746 7.91067 46.9092 7.388C47.5626 6.86533 48.4492 6.604 49.5692 6.604C51.0626 6.604 52.2199 7.09867 53.0412 8.088C53.8812 9.05867 54.3012 10.4493 54.3012 12.26V21.5H51.2492V12.652C51.2492 10.3747 50.3346 9.236 48.5052 9.236C48.1132 9.236 47.7212 9.292 47.3292 9.404C46.9559 9.49733 46.6199 9.64667 46.3212 9.852C46.0226 10.0573 45.7799 10.3187 45.5932 10.636C45.4252 10.9533 45.3412 11.3267 45.3412 11.756V21.5H42.2892ZM64.1594 21.836C63.1141 21.836 62.1807 21.6587 61.3594 21.304C60.5381 20.9493 59.8474 20.4453 59.2874 19.792C58.7274 19.12 58.2981 18.3173 57.9994 17.384C57.7007 16.432 57.5514 15.3773 57.5514 14.22C57.5514 13.0627 57.7007 12.0173 57.9994 11.084C58.2981 10.132 58.7274 9.32933 59.2874 8.676C59.8474 8.004 60.5381 7.49067 61.3594 7.136C62.1807 6.78133 63.1141 6.604 64.1594 6.604C65.6154 6.604 66.8101 6.93067 67.7434 7.584C68.6767 8.23733 69.3581 9.10533 69.7874 10.188L67.2674 11.364C67.0621 10.692 66.6981 10.16 66.1754 9.768C65.6714 9.35733 64.9994 9.152 64.1594 9.152C63.0394 9.152 62.1901 9.50667 61.6114 10.216C61.0514 10.9067 60.7714 11.812 60.7714 12.932V15.536C60.7714 16.656 61.0514 17.5707 61.6114 18.28C62.1901 18.9707 63.0394 19.316 64.1594 19.316C65.0554 19.316 65.7647 19.1013 66.2874 18.672C66.8287 18.224 67.2581 17.636 67.5754 16.908L69.8994 18.14C69.4141 19.3347 68.6861 20.2493 67.7154 20.884C66.7447 21.5187 65.5594 21.836 64.1594 21.836ZM72.8048 0.78H75.8568V9.348H75.9968C76.3142 8.564 76.7902 7.91067 77.4249 7.388C78.0782 6.86533 78.9649 6.604 80.0849 6.604C81.5782 6.604 82.7355 7.09867 83.5568 8.088C84.3969 9.05867 84.8169 10.4493 84.8169 12.26V21.5H81.7649V12.624C81.7649 10.3653 80.8502 9.236 79.0208 9.236C78.6288 9.236 78.2369 9.292 77.8449 9.404C77.4715 9.49733 77.1355 9.64667 76.8369 9.852C76.5382 10.0573 76.2955 10.3187 76.1088 10.636C75.9408 10.9533 75.8568 11.3173 75.8568 11.728V21.5H72.8048V0.78ZM94.759 21.836C93.7137 21.836 92.7804 21.6587 91.959 21.304C91.1377 20.9493 90.4377 20.4453 89.859 19.792C89.2804 19.12 88.8324 18.3173 88.515 17.384C88.2164 16.432 88.067 15.3773 88.067 14.22C88.067 13.0627 88.2164 12.0173 88.515 11.084C88.8324 10.132 89.2804 9.32933 89.859 8.676C90.4377 8.004 91.1377 7.49067 91.959 7.136C92.7804 6.78133 93.7137 6.604 94.759 6.604C95.823 6.604 96.7564 6.79067 97.559 7.164C98.3804 7.53733 99.0617 8.06 99.603 8.732C100.144 9.38533 100.546 10.1507 100.807 11.028C101.087 11.9053 101.227 12.848 101.227 13.856V15.004H91.231V15.48C91.231 16.6 91.5577 17.524 92.211 18.252C92.883 18.9613 93.835 19.316 95.067 19.316C95.963 19.316 96.719 19.12 97.335 18.728C97.951 18.336 98.4737 17.804 98.903 17.132L100.695 18.896C100.154 19.792 99.3697 20.5107 98.343 21.052C97.3164 21.5747 96.1217 21.836 94.759 21.836ZM94.759 8.984C94.2364 8.984 93.751 9.07733 93.303 9.264C92.8737 9.45067 92.5004 9.712 92.183 10.048C91.8844 10.384 91.651 10.7853 91.483 11.252C91.315 11.7187 91.231 12.232 91.231 12.792V12.988H98.007V12.708C98.007 11.588 97.7177 10.692 97.139 10.02C96.5604 9.32933 95.767 8.984 94.759 8.984ZM110.234 21.836C109.188 21.836 108.255 21.6587 107.434 21.304C106.612 20.9493 105.922 20.4453 105.362 19.792C104.802 19.12 104.372 18.3173 104.074 17.384C103.775 16.432 103.626 15.3773 103.626 14.22C103.626 13.0627 103.775 12.0173 104.074 11.084C104.372 10.132 104.802 9.32933 105.362 8.676C105.922 8.004 106.612 7.49067 107.434 7.136C108.255 6.78133 109.188 6.604 110.234 6.604C111.69 6.604 112.884 6.93067 113.818 7.584C114.751 8.23733 115.432 9.10533 115.862 10.188L113.342 11.364C113.136 10.692 112.772 10.16 112.25 9.768C111.746 9.35733 111.074 9.152 110.234 9.152C109.114 9.152 108.264 9.50667 107.686 10.216C107.126 10.9067 106.846 11.812 106.846 12.932V15.536C106.846 16.656 107.126 17.5707 107.686 18.28C108.264 18.9707 109.114 19.316 110.234 19.316C111.13 19.316 111.839 19.1013 112.362 18.672C112.903 18.224 113.332 17.636 113.65 16.908L115.974 18.14C115.488 19.3347 114.76 20.2493 113.79 20.884C112.819 21.5187 111.634 21.836 110.234 21.836ZM118.879 0.78H121.931V13.492H122.071L124.087 10.888L127.587 6.94H131.143L126.047 12.568L131.759 21.5H128.119L123.947 14.556L121.931 16.74V21.5H118.879V0.78Z" fill="#F6F6F6"/>
</svg>
