<svg width="122" height="26" viewBox="0 0 122 26" fill="none" xmlns="http://www.w3.org/2000/svg">
<path d="M3.84038 20.3381H0.915771V0H9.83879C13.9344 0 16.4199 2.46887 16.4199 6.10087C16.4199 9.73287 13.9344 12.2017 9.83879 12.2017H3.8432V20.3381H3.84038ZM13.4953 6.10087C13.4953 4.06818 12.3243 2.46887 9.83879 2.46887H3.8432V9.73287H9.83879C12.3243 9.73287 13.4953 8.13356 13.4953 6.10087ZM17.5036 9.15131C17.7963 6.73836 19.8427 4.79234 23.9693 4.79234C26.4857 4.79234 28.6194 5.46059 29.7031 7.26121C30.1703 8.04689 30.4349 9.09259 30.4349 10.3116V20.3353H27.6257V18.4452C26.7475 19.6083 24.9939 20.7687 22.5056 20.7687C19.4036 20.7687 16.7717 19.1694 16.7717 15.8282C16.7717 13.2139 18.5563 11.3546 22.3592 11.033L27.6257 10.5968V10.3061C27.6257 8.27336 26.7475 6.96483 23.9693 6.96483C21.7455 6.96483 20.5464 7.83719 20.4001 9.14292H17.5036V9.15131ZM27.6229 13.8011V12.6379L22.6491 13.0741C20.5999 13.2474 19.5781 14.2372 19.5781 15.8337C19.5781 17.8692 21.0418 18.5934 22.7955 18.5934C25.4302 18.5962 27.6229 16.8515 27.6229 13.8011ZM39.0905 7.55479C37.0442 7.55479 35.7268 8.71793 35.7268 11.3322V20.3409H32.9176V5.22852H35.7268V6.97322C36.4587 5.6647 37.6268 4.93773 39.8224 4.93773H40.6134V7.552H39.0905V7.55479ZM41.4606 9.15131C41.7534 6.73836 43.7998 4.79234 47.9263 4.79234C50.4428 4.79234 52.5764 5.46059 53.6601 7.26121C54.1274 8.04689 54.392 9.09259 54.392 10.3116V20.3353H51.5828V18.4452C50.7046 19.6083 48.9509 20.7687 46.4626 20.7687C43.3606 20.7687 40.7288 19.1694 40.7288 15.8282C40.7288 13.2139 42.5134 11.3546 46.3162 11.033L51.5828 10.5968V10.3061C51.5828 8.27336 50.7046 6.96483 47.9263 6.96483C45.7026 6.96483 44.5035 7.83719 44.3571 9.14292H41.4606V9.15131ZM51.5828 13.8011V12.6379L46.609 13.0741C44.5598 13.2474 43.538 14.2372 43.538 15.8337C43.538 17.8692 45.0017 18.5934 46.7553 18.5934C49.3872 18.5962 51.5828 16.8515 51.5828 13.8011ZM68.1987 18.3054C67.3205 19.7593 65.5669 20.7743 63.2249 20.7743C58.6621 20.7743 56.1766 17.1423 56.1766 12.7833C56.1766 8.42435 58.6621 4.79234 63.2249 4.79234C65.5641 4.79234 67.3205 5.81009 68.1987 7.26121V0H71.0051V20.3409H68.1959V18.3054H68.1987ZM63.6641 7.11861C60.5931 7.11861 58.983 9.58748 58.983 12.7833C58.983 15.9791 60.5931 18.4508 63.6641 18.4508C66.735 18.4508 68.3451 15.8365 68.3451 12.7833C68.3451 9.73287 66.735 7.11861 63.6641 7.11861ZM81.831 18.0146V20.3381H72.8207V18.0146H75.9226V7.55479H72.8207V5.23132H78.729V18.0174H81.831V18.0146ZM78.729 2.90504H75.9198V0H78.729V2.90504ZM93.6477 18.0146C93.0622 18.887 91.4549 20.1927 88.8202 20.1927C84.5501 20.1927 81.7719 16.7061 81.7719 12.4925C81.7719 8.27896 84.5501 4.79234 88.8202 4.79234C91.4521 4.79234 93.0622 6.10087 93.6477 6.97043V5.22572H96.4569V18.736C96.4569 23.5311 93.6786 26 89.2593 26C85.8646 26 83.3791 24.2553 82.7937 21.641H85.7183C85.9829 22.6867 87.0638 23.8191 89.2565 23.8191C92.4739 23.8191 93.6448 21.7864 93.6448 18.7332V18.0146H93.6477ZM89.1158 7.11861C86.3375 7.11861 84.5811 9.58748 84.5811 12.4953C84.5811 15.4004 86.3347 17.872 89.1158 17.872C92.0404 17.872 93.7968 15.4032 93.7968 12.4953C93.794 9.58748 92.0404 7.11861 89.1158 7.11861ZM101.839 6.97322C102.717 5.37391 104.471 4.79514 106.227 4.79514C108.274 4.79514 110.176 5.66749 111.055 7.4094C111.933 5.81009 113.54 4.79514 116.175 4.79514C119.392 4.79514 121.734 6.68523 121.734 10.4598V20.3381H118.925V10.896C118.925 8.42714 117.9 7.11861 115.589 7.11861C113.686 7.11861 111.786 8.28175 111.786 11.3322V20.3409H108.977V10.8988C108.977 8.42994 107.953 7.12141 105.642 7.12141C103.739 7.12141 101.839 8.28455 101.839 11.335V20.3437H99.0296V5.22852H101.839V6.97322Z" fill="#F6F6F6"/>
</svg>
