<svg width="29" height="33" viewBox="0 0 29 33" fill="none" xmlns="http://www.w3.org/2000/svg">
<path d="M28.9156 10.154L11.2102 0L8.99701 1.27017V3.80807L6.78383 2.5379L4.57065 3.80807V6.34597L2.35747 5.0758L0.144287 6.34597V26.654L2.35747 27.9242L4.57065 26.654V29.1919L6.78383 30.4621L8.99701 29.1919V31.7298L11.2102 33L28.9156 22.846V20.3081L26.7024 19.0379L28.9156 17.7677V15.2298L26.7024 13.9597L28.9156 12.6895V10.154ZM4.57065 24.1161L2.35747 25.3863V7.61614L4.57065 8.88631V24.1161ZM11.2102 25.3839V22.846L20.0629 17.7702L22.2761 19.0403L11.2102 25.3839ZM17.8497 16.5L11.2102 20.3081V12.6919L17.8497 16.5ZM20.0629 15.2298L11.2102 10.154V7.61614L22.2761 13.9621L20.0629 15.2298ZM6.78383 5.0758L8.99701 6.34597V8.88386L6.78383 7.61369V5.0758ZM6.78383 10.154L8.99701 11.4242V21.5782L6.78383 22.8484V10.154ZM6.78383 25.3839L8.99701 24.1137V26.6516L6.78383 27.9218V25.3839ZM26.7024 21.5758L11.2102 30.4597V27.9218L24.4893 20.3056L26.7024 21.5758ZM26.7024 16.5L24.4893 17.7702L22.2761 16.5L24.4893 15.2298L26.7024 16.5ZM24.4893 12.6919L11.2102 5.0758V2.5379L26.7024 11.4218L24.4893 12.6919Z" fill="#F6F6F6"/>
</svg>
