<svg width="36" height="35" viewBox="0 0 36 35" fill="none" xmlns="http://www.w3.org/2000/svg">
<path d="M25.0547 20.2999L29.017 24.2608L18.2939 34.9839L7.57224 24.2622L11.5345 20.2999L18.2954 27.0958L25.0547 20.2999ZM31.817 13.5391L35.8114 17.4999L31.852 21.4608L27.8897 17.4999L31.817 13.5391ZM18.2954 13.5391L22.2562 17.4649L18.2939 21.4272L14.3331 17.4999L18.2939 13.5406L18.2954 13.5391ZM4.77224 13.5391L8.70099 17.4999L4.77516 21.4258L0.811409 17.4999L4.77224 13.5391ZM18.2968 0.0145264L29.0185 10.7041L25.0562 14.6635L18.2954 7.90265L11.536 14.6985L7.5737 10.7377L18.2954 0.0159847L18.2968 0.0145264Z" fill="#F6F6F6"/>
</svg>
