<svg width="20" height="19" viewBox="0 0 20 19" fill="none" xmlns="http://www.w3.org/2000/svg">
<path d="M9.64233 3.3123L8.77811 2.42398C6.74954 0.338756 3.02989 1.05834 1.68715 3.67993C1.05676 4.91298 0.914536 6.69325 2.06563 8.9653C3.17453 11.153 5.48153 13.7734 9.64233 16.6276C13.8031 13.7734 16.1089 11.153 17.219 8.9653C18.3701 6.69205 18.2291 4.91298 17.5975 3.67993C16.2548 1.05834 12.5351 0.337551 10.5065 2.42277L9.64233 3.3123ZM9.64233 18.08C-8.83899 5.8676 3.95197 -3.66414 9.43019 1.37775C9.50251 1.44404 9.57362 1.51275 9.64233 1.58386C9.71033 1.51281 9.7811 1.44446 9.85447 1.37896C15.3315 -3.66655 28.1236 5.8664 9.64233 18.08Z" fill="#CFCFCF"/>
</svg>
